<svg width="134" height="134" viewBox="0 0 134 134" fill="none" xmlns="http://www.w3.org/2000/svg">
<path d="M85.4807 48.5203C101.118 64.1734 100.903 89.2692 85.5751 104.682C85.5444 104.715 85.5129 104.748 85.4807 104.779L67.8932 122.367C52.3811 137.879 27.1438 137.877 11.6341 122.367C-3.87803 106.857 -3.87803 81.6172 11.6341 66.1078L21.3453 56.3966C23.9206 53.8213 28.3557 55.5328 28.4886 59.1722C28.6583 63.8105 29.4899 68.4702 31.0247 72.9702C31.5444 74.4941 31.1732 76.1795 30.0347 77.318L26.6097 80.743C19.2748 88.0779 19.0446 100.021 26.3074 107.428C33.6417 114.907 45.6972 114.952 53.0878 107.561L70.6753 89.9764C78.0534 82.5984 78.0225 70.6729 70.6753 63.3257C69.7068 62.359 68.731 61.6078 67.9688 61.0831C67.4296 60.7128 66.9844 60.2217 66.6687 59.6488C66.3531 59.076 66.1757 58.4373 66.1507 57.7837C66.047 55.0182 67.027 52.1683 69.2123 49.983L74.7227 44.4727C76.1677 43.0276 78.4345 42.8502 80.11 44.0198C82.0287 45.3596 83.8259 46.8656 85.4807 48.5203Z" fill="#2563EB"/>
<path d="M122.366 11.6333C106.856 -3.87669 81.6191 -3.87883 66.107 11.6333L48.5195 29.2208C48.4881 29.2521 48.4541 29.2862 48.4251 29.3175C33.0974 44.7308 32.8825 69.8266 48.5195 85.4796C50.1743 87.1344 51.9715 88.6404 53.8902 89.9802C55.5657 91.1495 57.8328 90.9718 59.2775 89.5273L64.7879 84.0169C66.9732 81.8316 67.9532 78.9817 67.8495 76.2162C67.8245 75.5627 67.6471 74.924 67.3314 74.3512C67.0157 73.7784 66.5706 73.2873 66.0314 72.9171C65.2692 72.3924 64.2937 71.6412 63.3249 70.6745C55.9777 63.3273 55.9468 51.4018 63.3249 44.0238L80.9124 26.4389C88.303 19.0483 100.358 19.0928 107.693 26.5724C114.956 33.9791 114.726 45.9223 107.391 53.2572L103.965 56.6822C102.827 57.8207 102.456 59.5061 102.976 61.03C104.51 65.53 105.342 70.19 105.512 74.828C105.645 78.4674 110.08 80.1791 112.655 77.6037L122.366 67.8924C137.878 52.3827 137.878 27.1427 122.366 11.6333Z" fill="#2563EB"/>
</svg>
